<?xml version="1.0" standalone="no"?>
<!DOCTYPE svg PUBLIC "-//W3C//DTD SVG 20010904//EN"
 "http://www.w3.org/TR/2001/REC-SVG-20010904/DTD/svg10.dtd">
<svg version="1.0" xmlns="http://www.w3.org/2000/svg"
 width="466.000000pt" height="466.000000pt" viewBox="0 0 466.000000 466.000000"
 preserveAspectRatio="xMidYMid meet">
<metadata>
Created by potrace 1.14, written by Peter Selinger 2001-2017
</metadata>
<g transform="translate(0.000000,466.000000) scale(0.100000,-0.100000)"
fill="#000000" stroke="none">
<path d="M771 4328 c0 -40 0 -75 0 -78 -1 -3 -3 -76 -4 -162 -2 -150 -1 -157
18 -161 17 -4 441 -2 455 2 10 2 5 81 -5 81 -5 0 -3 5 5 10 12 8 12 10 1 10
-9 0 -10 4 -4 13 5 6 8 23 6 37 -5 34 -5 38 0 93 2 29 -1 47 -7 47 -7 0 -8 3
-1 8 12 8 13 42 2 60 -5 6 -4 12 0 12 5 0 8 12 7 28 -4 77 24 69 -239 71
l-234 2 0 -73z"/>
<path d="M3962 4215 c-4 -5 -7 -73 -7 -150 l0 -140 -1347 0 c-741 -1 -1350 -4
-1353 -7 -4 -4 -7 -92 -6 -197 l0 -191 -257 0 -257 0 1 -1337 c1 -736 2 -1340
3 -1343 0 -3 610 -5 1354 -5 l1352 0 0 170 c0 102 4 173 10 177 6 5 6 8 -2 8
-6 0 -9 8 -6 18 4 17 20 18 251 17 136 -1 249 -3 252 -4 3 0 5 -106 5 -233 l0
-233 230 0 c127 -1 235 0 240 2 6 2 10 89 9 236 l0 232 -230 1 c-126 1 -233 2
-237 3 -5 1 -6 15 -3 31 2 19 0 30 -7 30 -8 0 -8 3 -2 8 12 8 14 92 2 92 -4 0
-5 6 -1 12 12 19 12 48 0 48 -7 0 -7 3 -1 8 12 8 14 92 2 92 -4 0 -5 6 -1 12
12 19 12 48 0 48 -7 0 -7 3 -1 8 12 8 14 92 2 92 -4 0 -5 6 -1 12 12 19 12 48
0 48 -7 0 -7 3 -1 8 12 8 14 92 2 92 -4 0 -5 6 -1 12 12 19 12 48 0 48 -7 0
-7 3 -1 8 12 8 14 92 2 92 -4 0 -5 6 -1 12 11 17 12 118 1 118 -4 0 -5 5 -1
12 11 18 11 142 -1 151 -7 4 -7 10 0 15 12 8 14 92 2 92 -4 0 -5 5 -1 12 11
17 12 118 1 118 -4 0 -5 5 -1 12 11 18 12 68 2 68 -5 0 -6 5 -2 12 11 18 11
142 -1 151 -7 4 -7 10 0 15 12 8 14 92 2 92 -4 0 -5 5 -1 12 11 17 12 118 1
118 -4 0 -5 5 -1 12 11 18 12 68 2 68 -5 0 -6 5 -2 12 11 18 11 142 -1 151 -7
4 -7 10 0 15 12 8 14 92 2 92 -4 0 -5 5 -1 12 11 17 12 118 1 118 -4 0 -5 5
-1 12 11 18 12 68 2 68 -5 0 -6 5 -2 12 11 18 11 142 -1 151 -7 5 -7 9 0 15 6
4 10 30 9 57 -1 28 1 55 3 61 3 8 47 12 131 12 70 0 136 1 147 1 18 1 20 8 20
64 0 34 -4 65 -10 69 -7 5 -6 8 1 8 6 0 11 7 11 15 0 8 -5 15 -11 15 -6 0 -6
4 2 12 7 7 8 17 1 30 -6 10 -6 18 -1 18 8 0 9 23 3 70 -2 10 -293 5 -299 -5z"/>
<path d="M183 1306 c-10 -16 -9 -406 2 -406 5 0 4 -5 -2 -11 -6 -6 -9 -19 -6
-28 4 -16 23 -18 241 -17 l237 1 0 233 c1 152 -3 232 -10 233 -55 7 -458 2
-462 -5z"/>
<path d="M739 756 c-1 0 -2 -70 -3 -153 l-1 -153 155 0 c149 0 156 1 156 20 0
11 -4 20 -8 20 -5 0 -4 8 1 18 7 13 6 23 -1 30 -7 7 -8 12 -2 12 5 0 9 11 9
25 0 14 -4 25 -8 25 -5 0 -5 5 -1 12 10 16 11 108 2 114 -5 3 -8 10 -8 15 0 6
5 7 12 3 6 -4 8 -3 5 4 -5 6 -62 10 -157 10 -83 0 -151 -1 -151 -2z"/>
<path d="M3449 719 c0 -22 -1 -55 -1 -74 0 -19 1 -71 1 -115 l1 -81 153 3 152
3 0 151 1 151 -153 0 -153 1 -1 -39z"/>
</g>
</svg>
